# xmcd CD database file
#
# Track frame offsets:
#	150
#	30564
#	56870
#	84336
#	96140
#	125489
#	139060
#	153571
#	172038
#	184921
#	202138
#	215958
#	231645
#	245354
#	268581
#	279157
#	293851
#	315556
#
# Disc length: 4514 seconds
#
# Revision: 0
# Processed by: cddbd v1.5.2PL0 Copyright (c) Steve Scherf et al.
# Submitted via: CDex 1.51
#
DISCID=1811a012
DTITLE=Nina Simone - My Baby Just Cares For Me - Disc 2
DYEAR=2008
DGENRE=Jazz
TTITLE0=I Ain't Got No (I Got Life)
TTITLE1=Don't Let Me Be Misunderstood
TTITLE2=House of the Rising Sun
TTITLE3=Work Song
TTITLE4=Suzanne
TTITLE5=The Other Woman
TTITLE6=Exactly Like Him
TTITLE7=Little Lisa Jane
TTITLE8=Cotton Eyed Joe
TTITLE9=Fobidden Fruit
TTITLE10=Gin House Blues
TTITLE11=Black Is the Color of my True Love's Hair
TTITLE12=To Love Somebody
TTITLE13=Porgy
TTITLE14=Lovin' Woman
TTITLE15=See Line Woman
TTITLE16=When I Was A Young Girl
TTITLE17=To Be Young, Gifted and Black
EXTD=YEAR: 2008
EXTT0=
EXTT1=
EXTT2=
EXTT3=
EXTT4=
EXTT5=
EXTT6=
EXTT7=
EXTT8=
EXTT9=
EXTT10=
EXTT11=
EXTT12=
EXTT13=
EXTT14=
EXTT15=
EXTT16=
EXTT17=
PLAYORDER=
